<svg width="220" height="62" viewBox="0 0 220 62" fill="none" xmlns="http://www.w3.org/2000/svg">
<g clip-path="url(#clip0_2455_491)">
<g clip-path="url(#clip1_2455_491)">
<path fill-rule="evenodd" clip-rule="evenodd" d="M5.13359 48.2953C6.24753 49.9944 7.51763 51.5689 8.92176 53L19.9185 41.7918C19.2313 41.0914 18.6095 40.3207 18.0644 39.4891C16.4261 36.9901 15.5517 34.0522 15.5517 31.0467C15.5517 28.0412 16.4261 25.1032 18.0644 22.6043C19.7026 20.1053 22.0311 18.1576 24.7554 17.0075C27.4797 15.8573 30.4774 15.5564 33.3696 16.1427C36.2616 16.7291 38.9182 18.1763 41.0033 20.3015L52 9.09338C47.74 4.75141 42.3124 1.79451 36.4035 0.596566C30.4947 -0.601375 24.37 0.0134526 18.804 2.3633C13.238 4.71315 8.48068 8.69251 5.13359 13.7981C1.7865 18.9037 -3.71048e-07 24.9063 0 31.0467C3.71048e-07 37.1871 1.7865 43.1897 5.13359 48.2953Z" fill="#FF90AC"/>
<path d="M36.4319 61.4122C42.33 60.232 47.7477 57.3191 52 53.0417L41.0233 42C38.942 44.0936 36.2902 45.5194 33.4034 46.097C30.5165 46.6747 27.5242 46.3782 24.8049 45.2452C22.9905 44.4892 21.3521 43.3834 19.9768 42L9 53.0417C11.8099 55.8681 15.1574 58.1272 18.8643 59.6717C24.4202 61.9866 30.5338 62.5926 36.4319 61.4122Z" fill="url(#paint0_linear_2455_491)"/>
<path d="M30.5 41C35.7467 41 40 36.5228 40 31C40 25.4772 35.7467 21 30.5 21C25.2533 21 21 25.4772 21 31C21 36.5228 25.2533 41 30.5 41Z" fill="url(#paint1_linear_2455_491)"/>
<path d="M57 40.4054V19.5946H60.0872V27.1757H60.2342C60.587 26.7595 60.9888 26.3928 61.4396 26.0757C62.4981 25.3225 63.6644 24.9459 64.9384 24.9459C66.9573 24.9459 68.6332 25.6793 69.9661 27.1459C71.3186 28.5928 71.9948 30.4856 71.9948 32.8243C71.9948 35.1631 71.3186 37.0658 69.9661 38.5324C68.6332 39.9793 66.9573 40.7027 64.9384 40.7027C63.6448 40.7027 62.4785 40.336 61.4396 39.6027C60.9692 39.2658 60.5674 38.8892 60.2342 38.473H60.0872V40.4054H57ZM61.2338 29.1081C60.4694 29.9802 60.0872 31.2189 60.0872 32.8243C60.0872 34.4297 60.4694 35.6784 61.2338 36.5703C62.0179 37.4423 63.0567 37.8784 64.3504 37.8784C65.7225 37.8784 66.8005 37.4423 67.5846 36.5703C68.3686 35.6982 68.7606 34.4496 68.7606 32.8243C68.7606 31.1991 68.3686 29.9505 67.5846 29.0784C66.8005 28.2063 65.7225 27.7703 64.3504 27.7703C63.0567 27.7703 62.0179 28.2162 61.2338 29.1081ZM74.6293 34.3108V25.2432H77.7165V34.0135C77.7165 35.3414 78.0007 36.3225 78.5691 36.9568C79.1572 37.5712 80.049 37.8784 81.2447 37.8784C82.4403 37.8784 83.4204 37.4721 84.1848 36.6595C84.9689 35.827 85.3609 34.7468 85.3609 33.4189V25.2432H88.4481V40.4054H85.3609V38.3243H85.2139C84.9787 38.7207 84.6161 39.1171 84.126 39.5135C83.0676 40.3063 81.8621 40.7027 80.5096 40.7027C78.6475 40.7027 77.1971 40.1577 76.1582 39.0676C75.1389 37.9775 74.6293 36.3919 74.6293 34.3108ZM91.972 40.4054V19.5946H95.0591V27.1757H95.2062C95.559 26.7595 95.9608 26.3928 96.4116 26.0757C97.4701 25.3225 98.6363 24.9459 99.9104 24.9459C101.929 24.9459 103.605 25.6793 104.938 27.1459C106.291 28.5928 106.967 30.4856 106.967 32.8243C106.967 35.1631 106.291 37.0658 104.938 38.5324C103.605 39.9793 101.929 40.7027 99.9104 40.7027C98.6167 40.7027 97.4505 40.336 96.4116 39.6027C95.9412 39.2658 95.5394 38.8892 95.2062 38.473H95.0591V40.4054H91.972ZM96.2058 29.1081C95.4414 29.9802 95.0591 31.2189 95.0591 32.8243C95.0591 34.4297 95.4414 35.6784 96.2058 36.5703C96.9898 37.4423 98.0287 37.8784 99.3224 37.8784C100.694 37.8784 101.773 37.4423 102.557 36.5703C103.341 35.6982 103.733 34.4496 103.733 32.8243C103.733 31.1991 103.341 29.9505 102.557 29.0784C101.773 28.2063 100.694 27.7703 99.3224 27.7703C98.0287 27.7703 96.9898 28.2162 96.2058 29.1081ZM109.601 40.4054V19.5946H112.688V27.1757H112.835C113.188 26.7595 113.59 26.3928 114.041 26.0757C115.099 25.3225 116.266 24.9459 117.54 24.9459C119.559 24.9459 121.235 25.6793 122.567 27.1459C123.92 28.5928 124.596 30.4856 124.596 32.8243C124.596 35.1631 123.92 37.0658 122.567 38.5324C121.235 39.9793 119.559 40.7027 117.54 40.7027C116.246 40.7027 115.08 40.336 114.041 39.6027C113.571 39.2658 113.169 38.8892 112.835 38.473H112.688V40.4054H109.601ZM113.835 29.1081C113.071 29.9802 112.688 31.2189 112.688 32.8243C112.688 34.4297 113.071 35.6784 113.835 36.5703C114.619 37.4423 115.658 37.8784 116.952 37.8784C118.324 37.8784 119.402 37.4423 120.186 36.5703C120.97 35.6982 121.362 34.4496 121.362 32.8243C121.362 31.1991 120.97 29.9505 120.186 29.0784C119.402 28.2063 118.324 27.7703 116.952 27.7703C115.658 27.7703 114.619 28.2162 113.835 29.1081ZM127.231 40.4054V19.5946H130.318V37.5811H133.699V40.4054H127.231ZM137.081 38.4432C135.611 36.9171 134.876 35.0441 134.876 32.8243C134.876 30.6045 135.611 28.7414 137.081 27.2351C138.571 25.709 140.384 24.9459 142.521 24.9459C144.657 24.9459 146.46 25.709 147.931 27.2351C149.42 28.7414 150.165 30.6045 150.165 32.8243V33.8649H137.963C138.199 35.1135 138.738 36.0946 139.581 36.8081C140.423 37.5216 141.403 37.8784 142.521 37.8784C143.893 37.8784 144.99 37.5315 145.814 36.8378C146.186 36.5604 146.509 36.2135 146.784 35.7973H150.018C149.606 36.7685 149.087 37.591 148.46 38.2649C146.853 39.8901 144.873 40.7027 142.521 40.7027C140.384 40.7027 138.571 39.9496 137.081 38.4432ZM138.11 31.3378H146.931C146.754 30.3468 146.284 29.5045 145.52 28.8108C144.775 28.1171 143.775 27.7703 142.521 27.7703C141.462 27.7703 140.521 28.0973 139.698 28.7514C138.875 29.3856 138.346 30.2477 138.11 31.3378ZM155.401 37.8784C153.284 35.7973 152.226 33.1712 152.226 30C152.226 26.8288 153.284 24.2027 155.401 22.1216C157.518 20.0405 160.135 19 163.251 19C166.819 19 169.602 20.2685 171.601 22.8054C172.483 23.8955 173.13 25.1541 173.542 26.5811H170.161C169.808 25.7883 169.318 25.0748 168.691 24.4405C167.26 22.9937 165.447 22.2703 163.251 22.2703C161.036 22.2703 159.233 22.9838 157.841 24.4108C156.45 25.8378 155.754 27.7009 155.754 30C155.754 32.2991 156.45 34.1622 157.841 35.5892C159.233 37.0162 161.036 37.7297 163.251 37.7297C165.505 37.7297 167.358 36.9369 168.808 35.3514C169.455 34.6775 169.955 33.8847 170.308 32.973H173.689C173.179 34.5189 172.464 35.8568 171.542 36.9865C169.504 39.6622 166.74 41 163.251 41C160.135 41 157.518 39.9595 155.401 37.8784ZM176.767 40.4054V19.5946H185.734C188.165 19.5946 190.096 20.2288 191.526 21.4973C192.957 22.7658 193.673 24.3613 193.673 26.2838C193.673 27.8099 193.202 29.1577 192.261 30.327C191.34 31.4766 190.047 32.2595 188.38 32.6757L193.526 40.4054H189.556L184.705 32.973H180.148V40.4054H176.767ZM180.148 29.7027H185.734C188.674 29.7027 190.145 28.5631 190.145 26.2838C190.145 24.0045 188.674 22.8649 185.734 22.8649H180.148V29.7027ZM197.067 40.4054V19.5946H202.653L208.239 32.527H208.974L214.561 19.5946H220V40.4054H216.619V25.8378L216.913 23.0135H216.619L211.18 35.6487H205.887L200.448 23.0135H200.154L200.448 25.8378V40.4054H197.067Z" fill="white"/>
</g>
</g>
<defs>
<linearGradient id="paint0_linear_2455_491" x1="30.5" y1="40.896" x2="30.5" y2="64.1408" gradientUnits="userSpaceOnUse">
<stop stop-color="#FF0745"/>
<stop offset="1" stop-color="#FFC3D2"/>
</linearGradient>
<linearGradient id="paint1_linear_2455_491" x1="30.5" y1="21" x2="30.5" y2="41" gradientUnits="userSpaceOnUse">
<stop stop-color="#FF003F"/>
<stop offset="1" stop-color="#FF3467"/>
</linearGradient>
<clipPath id="clip0_2455_491">
<rect width="220" height="62" fill="white"/>
</clipPath>
<clipPath id="clip1_2455_491">
<rect width="220" height="62" fill="white"/>
</clipPath>
</defs>
</svg>
